<?xml version="1.0" encoding="utf-8"?>
<!-- Generator: Adobe Illustrator 23.0.3, SVG Export Plug-In . SVG Version: 6.00 Build 0)  -->
<svg version="1.1" id="Layer_2" xmlns="http://www.w3.org/2000/svg" xmlns:xlink="http://www.w3.org/1999/xlink" x="0px" y="0px"
	 viewBox="0 0 5000 5000" style="enable-background:new 0 0 5000 5000;" xml:space="preserve">
<style type="text/css">
	.st0{fill:#E6E6E6;}
	.st1{fill:#F80707;}
	.st2{fill:#FFFFFF;}
	.st3{fill:#FE0606;}
</style>
<g>
	<path class="st0" d="M3982.9,867.5c-52.9,0-102.8-22.7-137.6-62.8c-35.8-41.3-51.1-95.8-42-149.7l90.6-537H936.5
		C771.1,118,637,252.1,637,417.5v4191.2c0,165.4,134.1,299.5,299.5,299.5h3257.1c165.4,0,299.5-134.1,299.5-299.5V854.7l-505.5,12.8
		C3986,867.5,3984.4,867.5,3982.9,867.5z"/>
	<path class="st0" d="M4327.3,555.7l-83.7-96.5l-296-341.3h-15.8l-59.2,350.6l-32.5,192.6C3825,751,3895.6,832.3,3986.6,830
		l195.2-4.9l311.2-7.9v-41.2L4327.3,555.7z"/>
</g>
<path class="st1" d="M4134.1,4950H995.9c-198.2,0-358.9-160.7-358.9-358.9v-961.4h3856v961.4C4493,4789.3,4332.3,4950,4134.1,4950z"
	/>
<g>
	<path class="st2" d="M1642.7,3900.2c53.9-9.6,126.9-16.8,225.1-16.8c107.8,0,185.6,22.8,237.1,65.9c47.9,39.5,79,103,79,178.4
		c0,76.6-24,138.9-68.3,182c-59.9,58.7-150.9,87.4-255.1,87.4c-27.5,0-51.5-1.2-71.8-6v305.4h-146.1V3900.2z M1788.8,4275.1
		c19.2,6,41.9,7.2,71.8,7.2c110.2,0,177.2-55.1,177.2-148.5c0-89.8-62.3-136.5-164.1-136.5c-40.7,0-69.5,3.6-85,7.2V4275.1z"/>
	<path class="st2" d="M2312.1,3900.2c65.9-9.6,147.3-16.8,234.7-16.8c150.9,0,253.9,31.1,328.1,93.4c79,63.5,126.9,160.5,126.9,297
		c0,144.9-49.1,251.5-125.7,320.9c-80.2,73-208.4,110.2-365.2,110.2c-85,0-149.7-4.8-198.8-10.8V3900.2z M2459.4,4585.2
		c20.4,3.6,51.5,3.6,81.4,3.6c191.6,1.2,305.4-105.4,305.4-310.2c1.2-177.2-101.8-280.2-286.2-280.2c-46.7,0-79,3.6-100.6,8.4
		V4585.2z"/>
	<path class="st2" d="M3130,3889.5h467v120.9h-319.7v222.7h297v119.8h-297v343.7H3130V3889.5z"/>
</g>
<path class="st3" d="M1970.6,2860.2c-58.1,0-128-19-202.3-80.3c-79.3-65.6-78.9-140.3-71.5-179c8.5-44.9,33.4-88.2,76-132.3
	c32-33.2,73.4-66.3,126.7-101.3c83.3-54.7,194.9-113.1,331.7-173.5c34.7-15.3,69.2-30,102.8-43.8c25.9-57.2,102.6-228.9,177.1-420.3
	c9-23.2,17.6-45.5,25.7-67.1c-76.3-101.2-130.8-201.2-161.9-297.6c-38.5-119-43-236-13.5-347.8c17.9-67.6,49.5-120,94-155.9
	c44.3-35.6,99.8-52.1,156.3-46.3c32.7,3.3,64.6,13.7,94.9,30.9c28.7,16.3,54.7,38,77,64.5c22.5,26.7,40.6,57.3,53.8,91
	c13.7,35,21.7,72.6,23.9,111.7c4,72.2-13.8,174.6-54.4,313.2c-17.8,60.8-40,128.6-66.4,202.7c98,113.4,213.7,216.3,313.6,301.5
	c2.2-0.4,4.4-0.8,6.5-1.1c114.7-19.5,212.5-27.1,290.5-22.7c51.9,2.9,95.1,11,132.2,24.5c49.6,18.1,87.2,46.3,111.7,83.6
	c28.7,43.6,39.3,91.9,30.7,139.6c-7.9,43.9-31.5,83.5-68.2,114.6c-46.8,39.6-111,61.4-179.4,61.4c-9.2,0-18.5-0.4-27.8-1.2
	c-84.6-7.2-167.2-46-238.7-112.2c-28.5-26.3-65.5-57.7-108.3-93.9c-136.7,28.4-249.8,63-258.5,65.6c-9.5,3.1-130.6,43.1-280.7,102.6
	c-18.4,51.3-46.5,123.2-83.3,198.1c-41.3,84.1-85.2,154.9-130.5,210.6c-62.7,77.1-130,127-200,148.4
	C2027.7,2855.1,2000.7,2860.2,1970.6,2860.2z M1873.8,2632.6c1.3,1.8,4,4.8,8.9,8.8c55.5,45.9,92.3,41.9,115.1,35
	c34.5-10.5,73.4-41.3,112.5-89.1c36.6-44.8,73-103.7,108.2-175.1c3.2-6.6,6.4-13.1,9.5-19.7c-97,45.6-176.6,89.1-237,129.6
	c-40.7,27.2-72,52.7-93.1,75.5C1880.6,2616.5,1875.3,2628.1,1873.8,2632.6z M3236.8,2087.7c93.8,84.7,178.2,66.5,204.6,44.1
	c5.6-4.8,7.4-8.5,7.5-9.5c0.1-0.4-0.4-3.4-4-8.9c-4.1-6.2-30.7-23.3-103.4-27.5C3311,2084.1,3276,2084.7,3236.8,2087.7z
	 M2669.5,1817.7c-34.8,88.4-69.6,171.9-99.3,241.2c69.8-25.1,115.6-40.1,119.7-41.4l1.1-0.3c4.1-1.3,60.9-18.9,143.8-39.8
	C2780.1,1928.2,2723.7,1874.8,2669.5,1817.7z M2589.8,993.5c-31.5,0-47.8,43.2-54.7,69.6c-34.8,131.7,2.5,263.9,76,388.8
	c64.1-198.4,73-289.1,70.8-329c-4.5-82.4-55.5-125.8-88.5-129.2C2592.2,993.5,2591,993.5,2589.8,993.5z"/>
</svg>
